<svg xmlns="http://www.w3.org/2000/svg" xmlns:xlink="http://www.w3.org/1999/xlink" contentStyleType="text/css" data-diagram-type="CLASS" height="738px" preserveAspectRatio="none" style="width:381px;height:738px;background:#FFFFFF;" version="1.1" viewBox="0 0 381 738" width="381px" zoomAndPan="magnify"><?plantuml 1.2026.7beta1?><defs/><g><!--class u--><g class="entity" data-qualified-name="u" data-source-line="3" id="ent0001"><rect fill="#F1F1F1" height="96.8906" rx="2.5" ry="2.5" style="stroke:#181818;stroke-width:0.5;" width="253.083" x="59.48" y="7"/><ellipse cx="165.8164" cy="23" fill="#ADD1B2" rx="11" ry="11" style="stroke:#181818;stroke-width:1;"/><path d="M169.9258,29 L162.2071,29 L162.2071,16.6094 L169.9258,16.6094 L169.9258,18.7656 L164.6602,18.7656 L164.6602,21.4375 L169.4258,21.4375 L169.4258,23.5938 L164.6602,23.5938 L164.6602,26.8438 L169.9258,26.8438 L169.9258,29 Z " fill="#000000"/><text fill="#000000" font-family="sans-serif" font-size="14" lengthAdjust="spacing" textLength="31.9102" x="186.3164" y="27.8467">User</text><line style="stroke:#181818;stroke-width:0.5;" x1="60.48" x2="311.563" y1="39" y2="39"/><g data-visibility-modifier="IE_MANDATORY"><ellipse cx="70.48" cy="52.6484" fill="#000000" rx="3" ry="3" style="stroke:#000000;stroke-width:1;"/></g><text fill="#000000" font-family="sans-serif" font-size="14" lengthAdjust="spacing" textLength="126.2871" x="79.48" y="55.9951">user_id : INT &#171;PK&#187;</text><line style="stroke:#181818;stroke-width:1;" x1="60.48" x2="311.563" y1="63.2969" y2="63.2969"/><g data-visibility-modifier="IE_MANDATORY"><ellipse cx="70.48" cy="76.9453" fill="#000000" rx="3" ry="3" style="stroke:#000000;stroke-width:1;"/></g><text fill="#000000" font-family="sans-serif" font-size="14" lengthAdjust="spacing" textLength="188.084" x="79.48" y="80.292">user_name : VARCHAR(50)</text><g data-visibility-modifier="IE_MANDATORY"><ellipse cx="70.48" cy="93.2422" fill="#000000" rx="3" ry="3" style="stroke:#000000;stroke-width:1;"/></g><text fill="#000000" font-family="sans-serif" font-size="14" lengthAdjust="spacing" textLength="227.083" x="79.48" y="96.5889">password_hash : VARCHAR(255)</text></g><!--class g--><g class="entity" data-qualified-name="g" data-source-line="10" id="ent0002"><rect fill="#F1F1F1" height="145.7813" rx="2.5" ry="2.5" style="stroke:#181818;stroke-width:0.5;" width="217.0576" x="77.49" y="180.89"/><ellipse cx="160.9295" cy="196.89" fill="#ADD1B2" rx="11" ry="11" style="stroke:#181818;stroke-width:1;"/><path d="M165.0388,202.89 L157.3201,202.89 L157.3201,190.4994 L165.0388,190.4994 L165.0388,192.6556 L159.7732,192.6556 L159.7732,195.3275 L164.5388,195.3275 L164.5388,197.4838 L159.7732,197.4838 L159.7732,200.7338 L165.0388,200.7338 L165.0388,202.89 Z " fill="#000000"/><text fill="#000000" font-family="sans-serif" font-size="14" lengthAdjust="spacing" textLength="41.6787" x="181.4295" y="201.7367">Game</text><line style="stroke:#181818;stroke-width:0.5;" x1="78.49" x2="293.5476" y1="212.89" y2="212.89"/><g data-visibility-modifier="IE_MANDATORY"><ellipse cx="88.49" cy="226.5384" fill="#000000" rx="3" ry="3" style="stroke:#000000;stroke-width:1;"/></g><text fill="#000000" font-family="sans-serif" font-size="14" lengthAdjust="spacing" textLength="135.4678" x="97.49" y="229.8851">game_id : INT &#171;PK&#187;</text><line style="stroke:#181818;stroke-width:1;" x1="78.49" x2="293.5476" y1="237.1869" y2="237.1869"/><g data-visibility-modifier="IE_MANDATORY"><ellipse cx="88.49" cy="250.8353" fill="#000000" rx="3" ry="3" style="stroke:#000000;stroke-width:1;"/></g><text fill="#000000" font-family="sans-serif" font-size="14" lengthAdjust="spacing" textLength="125.8975" x="97.49" y="254.182">user_id : INT &#171;FK&#187;</text><g data-visibility-modifier="IE_MANDATORY"><ellipse cx="88.49" cy="267.1322" fill="#000000" rx="3" ry="3" style="stroke:#000000;stroke-width:1;"/></g><text fill="#000000" font-family="sans-serif" font-size="14" lengthAdjust="spacing" textLength="123.1904" x="97.49" y="270.4789">game_mode : INT</text><g data-visibility-modifier="IE_MANDATORY"><ellipse cx="88.49" cy="283.4291" fill="#000000" rx="3" ry="3" style="stroke:#000000;stroke-width:1;"/></g><text fill="#000000" font-family="sans-serif" font-size="14" lengthAdjust="spacing" textLength="72.2354" x="97.49" y="286.7757">state : INT</text><g data-visibility-modifier="IE_MANDATORY"><ellipse cx="88.49" cy="299.7259" fill="#000000" rx="3" ry="3" style="stroke:#000000;stroke-width:1;"/></g><text fill="#000000" font-family="sans-serif" font-size="14" lengthAdjust="spacing" textLength="173.5713" x="97.49" y="303.0726">user_board_id : INT &#171;FK&#187;</text><g data-visibility-modifier="IE_MANDATORY"><ellipse cx="88.49" cy="316.0228" fill="#000000" rx="3" ry="3" style="stroke:#000000;stroke-width:1;"/></g><text fill="#000000" font-family="sans-serif" font-size="14" lengthAdjust="spacing" textLength="191.0576" x="97.49" y="319.3695">enemy_board_id : INT &#171;FK&#187;</text></g><!--class b--><g class="entity" data-qualified-name="b" data-source-line="20" id="ent0003"><rect fill="#F1F1F1" height="96.8906" rx="2.5" ry="2.5" style="stroke:#181818;stroke-width:0.5;" width="162.4248" x="104.81" y="403.67"/><ellipse cx="161.0766" cy="419.67" fill="#ADD1B2" rx="11" ry="11" style="stroke:#181818;stroke-width:1;"/><path d="M165.186,425.67 L157.4672,425.67 L157.4672,413.2794 L165.186,413.2794 L165.186,415.4356 L159.9204,415.4356 L159.9204,418.1075 L164.686,418.1075 L164.686,420.2638 L159.9204,420.2638 L159.9204,423.5138 L165.186,423.5138 L165.186,425.67 Z " fill="#000000"/><text fill="#000000" font-family="sans-serif" font-size="14" lengthAdjust="spacing" textLength="41.3916" x="181.5766" y="424.5167">Board</text><line style="stroke:#181818;stroke-width:0.5;" x1="105.81" x2="266.2348" y1="435.67" y2="435.67"/><g data-visibility-modifier="IE_MANDATORY"><ellipse cx="115.81" cy="449.3184" fill="#000000" rx="3" ry="3" style="stroke:#000000;stroke-width:1;"/></g><text fill="#000000" font-family="sans-serif" font-size="14" lengthAdjust="spacing" textLength="136.4248" x="124.81" y="452.6651">board_id : INT &#171;PK&#187;</text><line style="stroke:#181818;stroke-width:1;" x1="105.81" x2="266.2348" y1="459.9669" y2="459.9669"/><g data-visibility-modifier="IE_MANDATORY"><ellipse cx="115.81" cy="473.6153" fill="#000000" rx="3" ry="3" style="stroke:#000000;stroke-width:1;"/></g><text fill="#000000" font-family="sans-serif" font-size="14" lengthAdjust="spacing" textLength="75.3594" x="124.81" y="476.962">width : INT</text><g data-visibility-modifier="IE_MANDATORY"><ellipse cx="115.81" cy="489.9122" fill="#000000" rx="3" ry="3" style="stroke:#000000;stroke-width:1;"/></g><text fill="#000000" font-family="sans-serif" font-size="14" lengthAdjust="spacing" textLength="81.3955" x="124.81" y="493.2589">height : INT</text></g><!--class s--><g class="entity" data-qualified-name="s" data-source-line="27" id="ent0004"><rect fill="#F1F1F1" height="113.1875" rx="2.5" ry="2.5" style="stroke:#181818;stroke-width:0.5;" width="162.0352" x="7" y="593.86"/><ellipse cx="67.8604" cy="609.86" fill="#ADD1B2" rx="11" ry="11" style="stroke:#181818;stroke-width:1;"/><path d="M71.9697,615.86 L64.251,615.86 L64.251,603.4694 L71.9697,603.4694 L71.9697,605.6256 L66.7041,605.6256 L66.7041,608.2975 L71.4697,608.2975 L71.4697,610.4538 L66.7041,610.4538 L66.7041,613.7038 L71.9697,613.7038 L71.9697,615.86 Z " fill="#000000"/><text fill="#000000" font-family="sans-serif" font-size="14" lengthAdjust="spacing" textLength="31.8145" x="88.3604" y="614.7067">Shot</text><line style="stroke:#181818;stroke-width:0.5;" x1="8" x2="168.0352" y1="625.86" y2="625.86"/><g data-visibility-modifier="IE_MANDATORY"><ellipse cx="18" cy="639.5084" fill="#000000" rx="3" ry="3" style="stroke:#000000;stroke-width:1;"/></g><text fill="#000000" font-family="sans-serif" font-size="14" lengthAdjust="spacing" textLength="121.5225" x="27" y="642.8551">shot_id: INT &#171;PK&#187;</text><line style="stroke:#181818;stroke-width:1;" x1="8" x2="168.0352" y1="650.1569" y2="650.1569"/><g data-visibility-modifier="IE_MANDATORY"><ellipse cx="18" cy="663.8053" fill="#000000" rx="3" ry="3" style="stroke:#000000;stroke-width:1;"/></g><text fill="#000000" font-family="sans-serif" font-size="14" lengthAdjust="spacing" textLength="76.8018" x="27" y="667.152">pos_x : INT</text><g data-visibility-modifier="IE_MANDATORY"><ellipse cx="18" cy="680.1022" fill="#000000" rx="3" ry="3" style="stroke:#000000;stroke-width:1;"/></g><text fill="#000000" font-family="sans-serif" font-size="14" lengthAdjust="spacing" textLength="76.8018" x="27" y="683.4489">pos_y : INT</text><g data-visibility-modifier="IE_MANDATORY"><ellipse cx="18" cy="696.3991" fill="#000000" rx="3" ry="3" style="stroke:#000000;stroke-width:1;"/></g><text fill="#000000" font-family="sans-serif" font-size="14" lengthAdjust="spacing" textLength="136.0352" x="27" y="699.7457">board_id : INT &#171;FK&#187;</text></g><!--class sh--><g class="entity" data-qualified-name="sh" data-source-line="35" id="ent0005"><rect fill="#F1F1F1" height="145.7813" rx="2.5" ry="2.5" style="stroke:#181818;stroke-width:0.5;" width="162.0352" x="204" y="577.56"/><ellipse cx="265.4995" cy="593.56" fill="#ADD1B2" rx="11" ry="11" style="stroke:#181818;stroke-width:1;"/><path d="M269.6089,599.56 L261.8901,599.56 L261.8901,587.1694 L269.6089,587.1694 L269.6089,589.3256 L264.3433,589.3256 L264.3433,591.9975 L269.1089,591.9975 L269.1089,594.1538 L264.3433,594.1538 L264.3433,597.4038 L269.6089,597.4038 L269.6089,599.56 Z " fill="#000000"/><text fill="#000000" font-family="sans-serif" font-size="14" lengthAdjust="spacing" textLength="30.5361" x="285.9995" y="598.4067">Ship</text><line style="stroke:#181818;stroke-width:0.5;" x1="205" x2="365.0352" y1="609.56" y2="609.56"/><g data-visibility-modifier="IE_MANDATORY"><ellipse cx="215" cy="623.2084" fill="#000000" rx="3" ry="3" style="stroke:#000000;stroke-width:1;"/></g><text fill="#000000" font-family="sans-serif" font-size="14" lengthAdjust="spacing" textLength="120.2441" x="224" y="626.5551">ship_id: INT &#171;PK&#187;</text><line style="stroke:#181818;stroke-width:1;" x1="205" x2="365.0352" y1="633.8569" y2="633.8569"/><g data-visibility-modifier="IE_MANDATORY"><ellipse cx="215" cy="647.5053" fill="#000000" rx="3" ry="3" style="stroke:#000000;stroke-width:1;"/></g><text fill="#000000" font-family="sans-serif" font-size="14" lengthAdjust="spacing" textLength="136.0352" x="224" y="650.852">board_id : INT &#171;FK&#187;</text><g data-visibility-modifier="IE_MANDATORY"><ellipse cx="215" cy="663.8022" fill="#000000" rx="3" ry="3" style="stroke:#000000;stroke-width:1;"/></g><text fill="#000000" font-family="sans-serif" font-size="14" lengthAdjust="spacing" textLength="81.3955" x="224" y="667.1489">length : INT</text><g data-visibility-modifier="IE_MANDATORY"><ellipse cx="215" cy="680.0991" fill="#000000" rx="3" ry="3" style="stroke:#000000;stroke-width:1;"/></g><text fill="#000000" font-family="sans-serif" font-size="14" lengthAdjust="spacing" textLength="113.3535" x="224" y="683.4457">orientation : INT</text><g data-visibility-modifier="IE_MANDATORY"><ellipse cx="215" cy="696.3959" fill="#000000" rx="3" ry="3" style="stroke:#000000;stroke-width:1;"/></g><text fill="#000000" font-family="sans-serif" font-size="14" lengthAdjust="spacing" textLength="76.8018" x="224" y="699.7426">pos_x : INT</text><g data-visibility-modifier="IE_MANDATORY"><ellipse cx="215" cy="712.6928" fill="#000000" rx="3" ry="3" style="stroke:#000000;stroke-width:1;"/></g><text fill="#000000" font-family="sans-serif" font-size="14" lengthAdjust="spacing" textLength="77.0684" x="224" y="716.0395">pos_Y : INT</text></g><!--link u to g--><g class="link" data-entity-1="ent0001" data-entity-2="ent0002" data-link-type="crowfoot" data-source-line="46" id="lnk6"><path codeLine="46" d="M186.02,112.22 C186.02,135.15 186.02,137.11 186.02,162.56" fill="none" id="u-g" style="stroke:#181818;stroke-width:1;"/><line style="stroke:#181818;stroke-width:1;" x1="182.02" x2="190.02" y1="108.22" y2="108.22"/><line style="stroke:#181818;stroke-width:1;" x1="182.02" x2="190.02" y1="111.22" y2="111.22"/><line style="stroke:#181818;stroke-width:1;" x1="186.02" x2="186.02" y1="112.22" y2="104.22"/><line style="stroke:#181818;stroke-width:1;" x1="186.02" x2="192.02" y1="172.56" y2="180.56"/><line style="stroke:#181818;stroke-width:1;" x1="186.02" x2="180.02" y1="172.56" y2="180.56"/><line style="stroke:#181818;stroke-width:1;" x1="186.02" x2="186.02" y1="172.56" y2="180.56"/><ellipse cx="186.02" cy="166.56" fill="none" rx="4" ry="4" style="stroke:#181818;stroke-width:1;"/><text fill="#000000" font-family="sans-serif" font-size="13" lengthAdjust="spacing" textLength="36.0674" x="187.02" y="146.9569">juega</text></g><!--link g to b--><g class="link" data-entity-1="ent0002" data-entity-2="ent0003" data-link-type="crowfoot" data-source-line="47" id="lnk7"><path codeLine="47" d="M186.02,335.05 C186.02,360.53 186.02,372.51 186.02,395.44" fill="none" id="g-b" style="stroke:#181818;stroke-width:1;"/><line style="stroke:#181818;stroke-width:1;" x1="182.02" x2="190.02" y1="331.05" y2="331.05"/><line style="stroke:#181818;stroke-width:1;" x1="182.02" x2="190.02" y1="334.05" y2="334.05"/><line style="stroke:#181818;stroke-width:1;" x1="186.02" x2="186.02" y1="335.05" y2="327.05"/><line style="stroke:#181818;stroke-width:1;" x1="186.02" x2="194.02" y1="395.44" y2="403.44"/><line style="stroke:#181818;stroke-width:1;" x1="186.02" x2="178.02" y1="395.44" y2="403.44"/><line style="stroke:#181818;stroke-width:1;" x1="186.02" x2="186.02" y1="395.44" y2="403.44"/><text fill="#000000" font-family="sans-serif" font-size="13" lengthAdjust="spacing" textLength="32.9443" x="187.02" y="369.7369">tiene</text></g><!--link b to s--><g class="link" data-entity-1="ent0003" data-entity-2="ent0004" data-link-type="crowfoot" data-source-line="48" id="lnk8"><path codeLine="48" d="M158.5964,508.0475 C144.6564,535.9675 134.1428,557.0421 119.5528,586.2721" fill="none" id="b-s" style="stroke:#181818;stroke-width:1;"/><line style="stroke:#181818;stroke-width:1;" x1="156.8045" x2="163.9619" y1="502.6819" y2="506.2555"/><line style="stroke:#181818;stroke-width:1;" x1="155.4644" x2="162.6218" y1="505.366" y2="508.9396"/><line style="stroke:#181818;stroke-width:1;" x1="158.5964" x2="162.17" y1="508.0475" y2="500.89"/><line style="stroke:#181818;stroke-width:1;" x1="119.5528" x2="123.1379" y1="586.2721" y2="593.43"/><line style="stroke:#181818;stroke-width:1;" x1="119.5528" x2="108.8221" y1="586.2721" y2="593.43"/><line style="stroke:#181818;stroke-width:1;" x1="119.5528" x2="115.98" y1="586.2721" y2="593.43"/><text fill="#000000" font-family="sans-serif" font-size="13" lengthAdjust="spacing" textLength="32.9443" x="147.02" y="543.6269">tiene</text></g><!--link b to sh--><g class="link" data-entity-1="ent0003" data-entity-2="ent0005" data-link-type="crowfoot" data-source-line="49" id="lnk9"><path codeLine="49" d="M213.7114,508.0335 C225.2714,530.9635 232.1687,544.6364 244.9987,570.0864" fill="none" id="b-sh" style="stroke:#181818;stroke-width:1;"/><line style="stroke:#181818;stroke-width:1;" x1="208.3389" x2="215.4825" y1="506.2625" y2="502.6611"/><line style="stroke:#181818;stroke-width:1;" x1="209.6894" x2="216.833" y1="508.9413" y2="505.3399"/><line style="stroke:#181818;stroke-width:1;" x1="213.7114" x2="210.11" y1="508.0335" y2="500.89"/><line style="stroke:#181818;stroke-width:1;" x1="244.9987" x2="255.7436" y1="570.0864" y2="577.23"/><line style="stroke:#181818;stroke-width:1;" x1="244.9987" x2="241.4564" y1="570.0864" y2="577.23"/><line style="stroke:#181818;stroke-width:1;" x1="244.9987" x2="248.6" y1="570.0864" y2="577.23"/><text fill="#000000" font-family="sans-serif" font-size="13" lengthAdjust="spacing" textLength="32.9443" x="233.02" y="543.6269">tiene</text></g><?plantuml-src ZPBTIyCm5CNVyrTS-kI4WWXz6MCm1JyGH3OLV2ef3KcqJKAJCald_-wrYsswB-tZxvwSSqzI-o6LeHKjeP2AkSOmq9KJccj52qAOSj8r4BrOLaL0BTJG4i3l76f4gSnX2lUFpp2RFJtCvzqeZaE5eYL3pUjYUNstM9ub5nC_DTJQjQxoL50h0iLbaap8rn1zYmPTDE-ZEQ9_H0UAcr-5Frpgd6s7dbf7tPXq5fcckE5X8wPOsHnH1FjV_GYw0bbVOE_GVeErp9qOBIIOvC9v50IiX7QTl-tzBIAqF-vkj4q_VNg0cb7WdzLMGffjiXYIfJcPVEf62wRuJcbTIKoZJcerua61WBmDjqDgs6pYMBVutqmXUgyPfn7X7MpnAP0vj6OHoJop1v3esJS0?></g></svg>